# xmcd CD database file
#
# Track frame offsets:
#	150
#	25075
#	42867
#	67631
#	93161
#	114879
#	128617
#	145206
#	164438
#	184145
#
# Disc length: 2823 seconds
#
# Revision: 1
# Processed by: cddbd v1.5.2PL0 Copyright (c) Steve Scherf et al.
# Submitted via: jetAudio 7
#
DISCID=740b050a
DTITLE=Doogie White - As Yet Untitled
DYEAR=1900
DGENRE=Blues
TTITLE0=Come Taste The Band
TTITLE1=Time Machine
TTITLE2=Dreams Lie Down And Die
TTITLE3=Lonely
TTITLE4=Land Of The Deceiver
TTITLE5=Secret Jesus
TTITLE6=Sea Of Emotion
TTITLE7=Catz Got Yer Tongue
TTITLE8=Living On The Cheap
TTITLE9=Times Like These
EXTD=
EXTT0=
EXTT1=
EXTT2=
EXTT3=
EXTT4=
EXTT5=
EXTT6=
EXTT7=
EXTT8=
EXTT9=
PLAYORDER=
